<?xml version="1.0" encoding="UTF-8"?>
<svg xmlns="http://www.w3.org/2000/svg" style="stroke-dasharray:none; shape-rendering:auto; font-family:'Arial'; text-rendering:auto; fill-opacity:1; color-interpolation:auto; color-rendering:auto; font-size:12; fill:black; stroke:black; image-rendering:auto; stroke-miterlimit:10; stroke-linecap:square; stroke-linejoin:miter; font-style:normal; stroke-width:1; stroke-dashoffset:0; font-weight:normal; stroke-opacity:1;" contentScriptType="text/ecmascript" preserveAspectRatio="xMidYMid meet" zoomAndPan="magnify" version="1.0" contentStyleType="text/css" xml:xlink="http://www.w3.org/1999/xlink" width="1141" height="441"><rect x="0" y="232" width="1141" height="209" ry="0" rx="0" style="stroke:#000000; fill:#C9C3AC" /><g componentSequence="1"><text x="-336" y="8" transform="rotate(270)" text-anchor="middle" style="font-weight:bold;font-size:10px;stroke:none; fill:#434343"><tspan dy="14" x="-336">Analista BPO</tspan></text></g><rect x="0" y="12" width="1141" height="221" ry="0" rx="0" style="stroke:#000000; fill:#82B0B7" /><g componentSequence="2"><text x="-122" y="8" transform="rotate(270)" text-anchor="middle" style="font-weight:bold;font-size:10px;stroke:none; fill:#434343"><tspan dy="14" x="-122">Verifica Hierarquia</tspan></text></g><g sequence="1"><ellipse cx="87" cy="128" rx="17" ry="17" stroke-width="1" style="fill:url(#linearGradient66FF6696FF96B6FFB6_442419999);" stroke="336633" /></g><g sequence="41"><rect x="580" y="80" width="106" height="76" ry="5" rx="5" style="fill:url(#linearGradientF8FBFEEDF5FCDEEDFAD4E7F8E2E5E9_345585188);" stroke="191970" /></g><g componentSequence="41"><text x="633" y="95" text-anchor="middle" style="font-weight:bold;font-size:10px;stroke:none; fill:#333399"><tspan dy="14" x="633">Correção da</tspan><tspan dy="14" x="633">Solicitação</tspan></text></g><g sequence="42"><ellipse cx="827" cy="37" rx="17" ry="17" stroke-width="1" style="fill:url(#linearGradientFFFF66FFFF96FFFFB6_279355503);" stroke="999900" /></g><g sequence="42"><polygon points=" 813 30 828 30 828 23 843 38 828 53 828 46 813 46" style="stroke:none; fill:#999900" /></g><g sequence="43"><ellipse cx="837" cy="187" rx="17" ry="17" stroke-width="3" style="fill:url(#linearGradientFF6666FF9696FFB6B6_1436826655);" stroke="993333" /></g><g sequence="43"><polygon points=" 828 183 833 178 838 183 843 178 848 183 843 188 848 193 843 198 838 193 833 198 828 193 833 188" style="stroke:none; fill:#993333" /></g><g sequence="44"><polygon points=" 720 90 750 60 780 90 750 120 720 90" style="fill:url(#linearGradientFAFBFCFFFFCC_961418119);" stroke="000000" /></g><g componentSequence="44"><text x="750" y="130" text-anchor="middle" style="font-weight:bold;font-size:10px;stroke:none; fill:#333399"><tspan dy="14" x="750">Exclusi</tspan><tspan dy="14" x="750">vo</tspan></text></g><g sequence="51"><ellipse cx="547" cy="119" rx="17" ry="17" stroke-width="1" style="fill:url(#linearGradientFFFF66FFFF96FFFFB6_1681599132);" stroke="999900" /></g><g sequence="51"><polygon points=" 533 112 548 112 548 105 563 120 548 135 548 128 533 128" style="stroke:#999900; fill:none" /></g><g sequence="106"><rect x="160" y="311" width="106" height="60" ry="5" rx="5" style="fill:url(#linearGradientF8FBFEEDF5FCDEEDFAD4E7F8E2E5E9_1094409132);" stroke="191970" /></g><g componentSequence="106"><text x="213" y="330" text-anchor="middle" style="font-weight:bold;font-size:10px;stroke:none; fill:#333399"><tspan dy="14" x="213">Analista BPO</tspan></text></g><g sequence="107"><ellipse cx="87" cy="338" rx="17" ry="17" stroke-width="1" style="fill:url(#linearGradientFFFF66FFFF96FFFFB6_898351952);" stroke="999900" /></g><g sequence="107"><polygon points=" 73 331 88 331 88 324 103 339 88 354 88 347 73 347" style="stroke:#999900; fill:none" /></g><g sequence="109"><ellipse cx="467" cy="257" rx="17" ry="17" stroke-width="3" style="fill:url(#linearGradientFF6666FF9696FFB6B6_2081438797);" stroke="993333" /></g><g sequence="110"><polygon points=" 300 318 330 288 360 318 330 348 300 318" style="fill:url(#linearGradientFAFBFCFFFFCC_1103271577);" stroke="000000" /></g><g componentSequence="110"><text x="330" y="358" text-anchor="middle" style="font-weight:bold;font-size:10px;stroke:none; fill:#333399"><tspan dy="14" x="330">Aprova</tspan><tspan dy="14" x="330">do</tspan></text></g><g sequence="113"><ellipse cx="467" cy="338" rx="17" ry="17" stroke-width="1" style="fill:url(#linearGradientFFFF66FFFF96FFFFB6_1514099510);" stroke="999900" /></g><g sequence="113"><polygon points=" 453 331 468 331 468 324 483 339 468 354 468 347 453 347" style="stroke:none; fill:#999900" /></g><g sequence="119"><ellipse cx="227" cy="127" rx="17" ry="17" stroke-width="1" style="fill:url(#linearGradientFFFF66FFFF96FFFFB6_835033698);" stroke="999900" /></g><g sequence="119"><polygon points=" 213 120 228 120 228 113 243 128 228 143 228 136 213 136" style="stroke:none; fill:#999900" /></g><g sequence="121"><ellipse cx="477" cy="417" rx="17" ry="17" stroke-width="3" style="fill:url(#linearGradientFF6666FF9696FFB6B6_1288317507);" stroke="993333" /></g><g sequence="121"><polygon points=" 468 413 473 408 478 413 483 408 488 413 483 418 488 423 483 428 478 423 473 428 468 423 473 418" style="stroke:none; fill:#993333" /></g><rect x="40" y="20" width="105" height="61" ry="5" rx="5" style="stroke:none; fill:#FFFFE0" /><g componentSequence="3"><text x="50" y="43" text-anchor="left" style="font-weight:bold;font-size:10px;stroke:none; fill:#000000"><tspan dy="14" x="50">Início do</tspan><tspan dy="14" x="50">Processo</tspan></text></g><path style="fill:none; stroke-width:1; stroke:#000000;" d="M60.0 20.0 L40.0 20.0 L40.0 81.0 L60.0 81.0" /><rect x="870" y="20" width="105" height="77" ry="5" rx="5" style="stroke:none; fill:#FFFFE0" /><g componentSequence="48"><text x="880" y="43" text-anchor="left" style="font-weight:bold;font-size:10px;stroke:none; fill:#000000"><tspan dy="14" x="880">Reabertura -</tspan><tspan dy="14" x="880">Verificar</tspan><tspan dy="14" x="880">Hierarquia</tspan></text></g><path style="fill:none; stroke-width:1; stroke:#000000;" d="M890.0 20.0 L870.0 20.0 L870.0 97.0 L890.0 97.0" /><rect x="880" y="160" width="105" height="77" ry="5" rx="5" style="stroke:none; fill:#FFFFE0" /><g componentSequence="50"><text x="890" y="183" text-anchor="left" style="font-weight:bold;font-size:10px;stroke:none; fill:#000000"><tspan dy="14" x="890">Chamado</tspan><tspan dy="14" x="890">Cancelado -</tspan><tspan dy="14" x="890">Solicitante</tspan></text></g><path style="fill:none; stroke-width:1; stroke:#000000;" d="M900.0 160.0 L880.0 160.0 L880.0 237.0 L900.0 237.0" /><rect x="540" y="240" width="105" height="61" ry="5" rx="5" style="stroke:none; fill:#FFFFE0" /><g componentSequence="115"><text x="550" y="263" text-anchor="left" style="font-weight:bold;font-size:10px;stroke:none; fill:#000000"><tspan dy="14" x="550">Processo</tspan><tspan dy="14" x="550">Finalizado</tspan></text></g><path style="fill:none; stroke-width:1; stroke:#000000;" d="M560.0 240.0 L540.0 240.0 L540.0 301.0 L560.0 301.0" /><rect x="540" y="311" width="105" height="61" ry="5" rx="5" style="stroke:none; fill:#FFFFE0" /><g componentSequence="117"><text x="550" y="334" text-anchor="left" style="font-weight:bold;font-size:10px;stroke:none; fill:#000000"><tspan dy="14" x="550">Correção da</tspan><tspan dy="14" x="550">Solicitação</tspan></text></g><path style="fill:none; stroke-width:1; stroke:#000000;" d="M560.0 311.0 L540.0 311.0 L540.0 372.0 L560.0 372.0" /><rect x="540" y="380" width="105" height="61" ry="5" rx="5" style="stroke:none; fill:#FFFFE0" /><g componentSequence="123"><text x="550" y="403" text-anchor="left" style="font-weight:bold;font-size:10px;stroke:none; fill:#000000"><tspan dy="14" x="550">Processo</tspan><tspan dy="14" x="550">Cancelado</tspan></text></g><path style="fill:none; stroke-width:1; stroke:#000000;" d="M560.0 380.0 L540.0 380.0 L540.0 441.0 L560.0 441.0" /><g componentSequence="45"><text x="713" y="116" style="font-size:10px;font-weight:none;stroke:none; fill:#333399" text-anchor="left" /></g><g componentSequence="46"><text x="781" y="37" style="font-size:10px;font-weight:none;stroke:none; fill:#333399" text-anchor="left" /></g><g componentSequence="47"><text x="789" y="187" style="font-size:10px;font-weight:none;stroke:none; fill:#333399" text-anchor="left" /></g><g componentSequence="52"><text x="582" y="119" style="font-size:10px;font-weight:none;stroke:none; fill:#333399" text-anchor="left" /></g><g componentSequence="108"><text x="142" y="339" style="font-size:10px;font-weight:none;stroke:none; fill:#333399" text-anchor="left" /></g><g componentSequence="111"><text x="293" y="341" style="font-size:10px;font-weight:none;stroke:none; fill:#333399" text-anchor="left" /></g><g componentSequence="112"><text x="389" y="257" style="font-size:10px;font-weight:none;stroke:none; fill:#333399" text-anchor="left" /></g><g componentSequence="114"><text x="415" y="340" style="font-size:10px;font-weight:none;stroke:none; fill:#333399" text-anchor="left" /></g><g componentSequence="120"><text x="167" y="128" style="font-size:10px;font-weight:none;stroke:none; fill:#333399" text-anchor="left" /></g><g componentSequence="122"><text x="397" y="416" style="font-size:10px;font-weight:none;stroke:none; fill:#333399" text-anchor="left" /></g><g componentSequence="4"><text x="99" y="96" style="font-size:10px;font-weight:none;stroke:none; fill:#333399" text-anchor="left" /></g><g componentSequence="49"><text x="867" y="44" style="font-size:10px;font-weight:none;stroke:none; fill:#333399" text-anchor="left" /></g><g componentSequence="63"><text x="877" y="191" style="font-size:10px;font-weight:none;stroke:none; fill:#333399" text-anchor="left" /></g><g componentSequence="116"><text x="522" y="262" style="font-size:10px;font-weight:none;stroke:none; fill:#333399" text-anchor="left" /></g><g componentSequence="118"><text x="522" y="340" style="font-size:10px;font-weight:none;stroke:none; fill:#333399" text-anchor="left" /></g><g componentSequence="124"><text x="527" y="415" style="font-size:10px;font-weight:none;stroke:none; fill:#333399" text-anchor="left" /></g><path style="fill:none; stroke:#000000;stroke-width:1" d="M104.0 128.0 L210.0 127.0" /><polygon style="fill:#000000; stroke:#000000;" points=" 200 122 210 127 200 132 202 127" /><path style="fill:none; stroke:#000000;stroke-dasharray:2" d="M90.0 81.0 L88.0 111.0" /><path style="fill:none; stroke:#000000;stroke-width:1" d="M686.0 116.0 L719.0 115.0" /><polygon style="fill:#000000; stroke:#000000;" points=" 709 110 719 115 709 120 711 115" /><path style="fill:none; stroke:#000000;stroke-width:1" d="M564.0 119.0 L579.0 118.0" /><polygon style="fill:#000000; stroke:#000000;" points=" 569 114 579 118 569 124 571 119" /><path style="fill:none; stroke:#000000;stroke-width:1" d="M753.0 59.0 L755.0 37.0 L809.0 37.0" /><polygon style="fill:#000000; stroke:#000000;" points=" 799 32 809 37 799 42 801 37" /><path style="fill:none; stroke:#000000;stroke-dasharray:2" d="M869.0 46.0 L844.0 40.0" /><path style="fill:none; stroke:#000000;stroke-width:1" d="M757.0 168.0 L759.0 187.0 L819.0 187.0" /><polygon style="fill:#000000; stroke:#000000;" points=" 809 182 819 187 809 192 811 187" /><path style="fill:none; stroke:#000000;stroke-dasharray:2" d="M879.0 192.0 L854.0 189.0" /><path style="fill:none; stroke:#000000;stroke-width:1" d="M266.0 341.0 L299.0 341.0" /><polygon style="fill:#000000; stroke:#000000;" points=" 289 336 299 341 289 346 291 341" /><path style="fill:none; stroke:#000000;stroke-width:1" d="M104.0 338.0 L159.0 339.0" /><polygon style="fill:#000000; stroke:#000000;" points=" 149 334 159 339 149 344 151 339" /><path style="fill:none; stroke:#000000;stroke-width:1" d="M336.0 287.0 L339.0 257.0 L449.0 257.0" /><polygon style="fill:#000000; stroke:#000000;" points=" 439 252 449 257 439 262 441 257" /><path style="fill:none; stroke:#000000;stroke-dasharray:2" d="M539.0 264.0 L484.0 258.0" /><path style="fill:none; stroke:#000000;stroke-width:1" d="M360.0 341.0 L450.0 338.0" /><polygon style="fill:#000000; stroke:#000000;" points=" 440 333 450 338 440 343 442 338" /><path style="fill:none; stroke:#000000;stroke-width:1" d="M334.0 396.0 L335.0 416.0 L460.0 417.0" /><polygon style="fill:#000000; stroke:#000000;" points=" 450 412 460 417 450 422 452 417" /><path style="fill:none; stroke:#000000;stroke-dasharray:2" d="M539.0 340.0 L484.0 338.0" /><path style="fill:none; stroke:#000000;stroke-dasharray:2" d="M539.0 413.0 L494.0 416.0" /><defs><linearGradient xmlns:xlink="http://www.w3.org/1999/xlink" xlink:href="#linearGradient66FF6696FF96B6FFB6" id="linearGradient66FF6696FF96B6FFB6_442419999" x1="0" y1="111.0" x2="0" y2="146.0" gradientUnits="userSpaceOnUse" xlink:type="simple" xlink:actuate="onLoad" xlink:show="other" /><linearGradient id="linearGradient66FF6696FF96B6FFB6"><stop style="stop-color:#66FF66;stop-opacity:1;" offset="0.0" id="stop66FF66" /><stop style="stop-color:#96FF96;stop-opacity:1;" offset="0.5" id="stop96FF96" /><stop style="stop-color:#B6FFB6;stop-opacity:1;" offset="1.0" id="stopB6FFB6" /></linearGradient><linearGradient xmlns:xlink="http://www.w3.org/1999/xlink" xlink:href="#linearGradientF8FBFEEDF5FCDEEDFAD4E7F8E2E5E9" id="linearGradientF8FBFEEDF5FCDEEDFAD4E7F8E2E5E9_345585188" x1="0" y1="80.0" x2="0" y2="186.0" gradientUnits="userSpaceOnUse" xlink:type="simple" xlink:actuate="onLoad" xlink:show="other" /><linearGradient id="linearGradientF8FBFEEDF5FCDEEDFAD4E7F8E2E5E9"><stop style="stop-color:#F8FBFE;stop-opacity:1;" offset="0.0" id="stopF8FBFE" /><stop style="stop-color:#EDF5FC;stop-opacity:1;" offset="0.25" id="stopEDF5FC" /><stop style="stop-color:#DEEDFA;stop-opacity:1;" offset="0.5" id="stopDEEDFA" /><stop style="stop-color:#D4E7F8;stop-opacity:1;" offset="0.75" id="stopD4E7F8" /><stop style="stop-color:#E2E5E9;stop-opacity:1;" offset="1.0" id="stopE2E5E9" /></linearGradient><linearGradient xmlns:xlink="http://www.w3.org/1999/xlink" xlink:href="#linearGradientFFFF66FFFF96FFFFB6" id="linearGradientFFFF66FFFF96FFFFB6_279355503" x1="0" y1="20.0" x2="0" y2="55.0" gradientUnits="userSpaceOnUse" xlink:type="simple" xlink:actuate="onLoad" xlink:show="other" /><linearGradient id="linearGradientFFFF66FFFF96FFFFB6"><stop style="stop-color:#FFFF66;stop-opacity:1;" offset="0.0" id="stopFFFF66" /><stop style="stop-color:#FFFF96;stop-opacity:1;" offset="0.5" id="stopFFFF96" /><stop style="stop-color:#FFFFB6;stop-opacity:1;" offset="1.0" id="stopFFFFB6" /></linearGradient><linearGradient xmlns:xlink="http://www.w3.org/1999/xlink" xlink:href="#linearGradientFF6666FF9696FFB6B6" id="linearGradientFF6666FF9696FFB6B6_1436826655" x1="0" y1="170.0" x2="0" y2="205.0" gradientUnits="userSpaceOnUse" xlink:type="simple" xlink:actuate="onLoad" xlink:show="other" /><linearGradient id="linearGradientFF6666FF9696FFB6B6"><stop style="stop-color:#FF6666;stop-opacity:1;" offset="0.0" id="stopFF6666" /><stop style="stop-color:#FF9696;stop-opacity:1;" offset="0.5" id="stopFF9696" /><stop style="stop-color:#FFB6B6;stop-opacity:1;" offset="1.0" id="stopFFB6B6" /></linearGradient><linearGradient xmlns:xlink="http://www.w3.org/1999/xlink" xlink:href="#linearGradientFAFBFCFFFFCC" id="linearGradientFAFBFCFFFFCC_961418119" x1="0" y1="60.0" x2="0" y2="120.0" gradientUnits="userSpaceOnUse" xlink:type="simple" xlink:actuate="onLoad" xlink:show="other" /><linearGradient id="linearGradientFAFBFCFFFFCC"><stop style="stop-color:#FAFBFC;stop-opacity:1;" offset="0.0" id="stopFAFBFC" /><stop style="stop-color:#FFFFCC;stop-opacity:1;" offset="1.0" id="stopFFFFCC" /></linearGradient><linearGradient xmlns:xlink="http://www.w3.org/1999/xlink" xlink:href="#linearGradientFFFF66FFFF96FFFFB6" id="linearGradientFFFF66FFFF96FFFFB6_1681599132" x1="0" y1="102.0" x2="0" y2="137.0" gradientUnits="userSpaceOnUse" xlink:type="simple" xlink:actuate="onLoad" xlink:show="other" /><linearGradient xmlns:xlink="http://www.w3.org/1999/xlink" xlink:href="#linearGradientF8FBFEEDF5FCDEEDFAD4E7F8E2E5E9" id="linearGradientF8FBFEEDF5FCDEEDFAD4E7F8E2E5E9_1094409132" x1="0" y1="311.0" x2="0" y2="417.0" gradientUnits="userSpaceOnUse" xlink:type="simple" xlink:actuate="onLoad" xlink:show="other" /><linearGradient xmlns:xlink="http://www.w3.org/1999/xlink" xlink:href="#linearGradientFFFF66FFFF96FFFFB6" id="linearGradientFFFF66FFFF96FFFFB6_898351952" x1="0" y1="321.0" x2="0" y2="356.0" gradientUnits="userSpaceOnUse" xlink:type="simple" xlink:actuate="onLoad" xlink:show="other" /><linearGradient xmlns:xlink="http://www.w3.org/1999/xlink" xlink:href="#linearGradientFF6666FF9696FFB6B6" id="linearGradientFF6666FF9696FFB6B6_2081438797" x1="0" y1="240.0" x2="0" y2="275.0" gradientUnits="userSpaceOnUse" xlink:type="simple" xlink:actuate="onLoad" xlink:show="other" /><linearGradient xmlns:xlink="http://www.w3.org/1999/xlink" xlink:href="#linearGradientFAFBFCFFFFCC" id="linearGradientFAFBFCFFFFCC_1103271577" x1="0" y1="288.0" x2="0" y2="348.0" gradientUnits="userSpaceOnUse" xlink:type="simple" xlink:actuate="onLoad" xlink:show="other" /><linearGradient xmlns:xlink="http://www.w3.org/1999/xlink" xlink:href="#linearGradientFFFF66FFFF96FFFFB6" id="linearGradientFFFF66FFFF96FFFFB6_1514099510" x1="0" y1="321.0" x2="0" y2="356.0" gradientUnits="userSpaceOnUse" xlink:type="simple" xlink:actuate="onLoad" xlink:show="other" /><linearGradient xmlns:xlink="http://www.w3.org/1999/xlink" xlink:href="#linearGradientFFFF66FFFF96FFFFB6" id="linearGradientFFFF66FFFF96FFFFB6_835033698" x1="0" y1="110.0" x2="0" y2="145.0" gradientUnits="userSpaceOnUse" xlink:type="simple" xlink:actuate="onLoad" xlink:show="other" /><linearGradient xmlns:xlink="http://www.w3.org/1999/xlink" xlink:href="#linearGradientFF6666FF9696FFB6B6" id="linearGradientFF6666FF9696FFB6B6_1288317507" x1="0" y1="400.0" x2="0" y2="435.0" gradientUnits="userSpaceOnUse" xlink:type="simple" xlink:actuate="onLoad" xlink:show="other" /></defs></svg>
